<svg version="1.1" id="Uploaded to svgrepo.com" xmlns="http://www.w3.org/2000/svg" xmlns:xlink="http://www.w3.org/1999/xlink" viewBox="0 0 32 32" xml:space="preserve" fill="#000000"><g id="SVGRepo_bgCarrier" stroke-width="0"></g><g id="SVGRepo_tracerCarrier" stroke-linecap="round" stroke-linejoin="round"></g><g id="SVGRepo_iconCarrier"> <style type="text/css"> .feather_een{fill:#48e3fe;} </style> <path class="feather_een" d="M6,9c0-0.552,0.448-1,1-1s1,0.448,1,1c0,0.552-0.448,1-1,1S6,9.552,6,9z M10,10c0.552,0,1-0.448,1-1 c0-0.552-0.448-1-1-1S9,8.448,9,9C9,9.552,9.448,10,10,10z M26.63,16.669C26.827,18.446,25.436,20,23.648,20H8.352 c-1.788,0-3.179-1.554-2.982-3.331l0.333-3C5.872,12.149,7.156,11,8.685,11h14.63c1.529,0,2.813,1.149,2.982,2.669L26.63,16.669z M25.636,16.779l-0.333-3C25.19,12.765,24.335,12,23.315,12H8.685c-1.021,0-1.875,0.765-1.988,1.779l-0.333,3 c-0.064,0.573,0.113,1.125,0.497,1.555C7.246,18.763,7.775,19,8.352,19h15.296c0.577,0,1.106-0.237,1.49-0.666 C25.523,17.904,25.7,17.352,25.636,16.779z M32,11v5c0,0.552-0.448,1-1,1h-1.778l0.469,4.218c0.174,1.567-0.894,3.001-2.445,3.283 l-6.699,1.218c-0.179,0.032-0.358,0.048-0.537,0.048c-0.788,0-1.554-0.311-2.121-0.879l-0.474-0.474 c-0.391-0.391-0.902-0.586-1.414-0.586c-0.512,0-1.024,0.195-1.414,0.586l-0.475,0.475c-0.568,0.568-1.333,0.879-2.121,0.879 c-0.178,0-0.358-0.016-0.537-0.048l-6.699-1.218c-1.551-0.282-2.619-1.716-2.445-3.283L2.778,17H1c-0.552,0-1-0.448-1-1v-5 c0-0.552,0.448-1,1-1h2.556l0.148-1.331C3.872,7.149,5.156,6,6.685,6h18.63c1.529,0,2.813,1.149,2.982,2.669L28.444,10H31 C31.552,10,32,10.448,32,11z M3.444,11H1v5h1.889L3.444,11z M28.697,21.328L27.303,8.779C27.19,7.765,26.335,7,25.315,7H6.685 C5.665,7,4.81,7.765,4.697,8.779L3.303,21.328c-0.116,1.04,0.6,2.001,1.63,2.189l6.699,1.218c0.118,0.021,0.238,0.032,0.358,0.032 c0.526,0,1.042-0.214,1.414-0.586l0.475-0.475c0.567-0.567,1.32-0.879,2.121-0.879c0.801,0,1.555,0.312,2.121,0.879l0.474,0.474 c0.378,0.378,0.88,0.586,1.414,0.586c0.12,0,0.24-0.011,0.358-0.032l6.699-1.218C28.097,23.33,28.813,22.368,28.697,21.328z M31,11 h-2.444l0.556,5H31V11z"></path> </g></svg>